<mxfile host="app.diagrams.net" modified="2022-10-18T09:22:50.631Z" agent="5.0 (Windows)" etag="LNgYrd-2ypP65W4QPQQM" version="20.4.0" type="github">
  <diagram id="C5RBs43oDa-KdzZeNtuy" name="Page-1">
    <mxGraphModel dx="1422" dy="737" grid="1" gridSize="10" guides="1" tooltips="1" connect="1" arrows="1" fold="1" page="1" pageScale="1" pageWidth="1169" pageHeight="1654" math="0" shadow="0">
      <root>
        <mxCell id="WIyWlLk6GJQsqaUBKTNV-0" />
        <mxCell id="WIyWlLk6GJQsqaUBKTNV-1" parent="WIyWlLk6GJQsqaUBKTNV-0" />
        <mxCell id="vzfZLmZ9EQ3UH8GfhQlj-4" style="edgeStyle=orthogonalEdgeStyle;rounded=0;orthogonalLoop=1;jettySize=auto;html=1;exitX=1;exitY=0.5;exitDx=0;exitDy=0;entryX=0;entryY=0.5;entryDx=0;entryDy=0;" edge="1" parent="WIyWlLk6GJQsqaUBKTNV-1" source="vzfZLmZ9EQ3UH8GfhQlj-0" target="vzfZLmZ9EQ3UH8GfhQlj-2">
          <mxGeometry relative="1" as="geometry" />
        </mxCell>
        <mxCell id="vzfZLmZ9EQ3UH8GfhQlj-0" value="开始" style="rounded=1;whiteSpace=wrap;html=1;fontSize=12;glass=0;strokeWidth=1;shadow=0;" vertex="1" parent="WIyWlLk6GJQsqaUBKTNV-1">
          <mxGeometry x="140" y="91.75" width="90" height="40" as="geometry" />
        </mxCell>
        <mxCell id="vzfZLmZ9EQ3UH8GfhQlj-1" value="" style="edgeStyle=orthogonalEdgeStyle;rounded=0;orthogonalLoop=1;jettySize=auto;html=1;" edge="1" parent="WIyWlLk6GJQsqaUBKTNV-1" source="vzfZLmZ9EQ3UH8GfhQlj-2" target="vzfZLmZ9EQ3UH8GfhQlj-3">
          <mxGeometry relative="1" as="geometry" />
        </mxCell>
        <mxCell id="vzfZLmZ9EQ3UH8GfhQlj-2" value="查询approvalLog" style="rounded=1;whiteSpace=wrap;html=1;fontSize=12;glass=0;strokeWidth=1;shadow=0;" vertex="1" parent="WIyWlLk6GJQsqaUBKTNV-1">
          <mxGeometry x="355" y="91.75" width="120" height="40" as="geometry" />
        </mxCell>
        <mxCell id="vzfZLmZ9EQ3UH8GfhQlj-6" style="edgeStyle=orthogonalEdgeStyle;rounded=0;orthogonalLoop=1;jettySize=auto;html=1;exitX=1;exitY=0.5;exitDx=0;exitDy=0;entryX=0;entryY=0.5;entryDx=0;entryDy=0;" edge="1" parent="WIyWlLk6GJQsqaUBKTNV-1" source="vzfZLmZ9EQ3UH8GfhQlj-3" target="vzfZLmZ9EQ3UH8GfhQlj-5">
          <mxGeometry relative="1" as="geometry" />
        </mxCell>
        <mxCell id="vzfZLmZ9EQ3UH8GfhQlj-3" value="查询specAppl记录" style="rounded=1;whiteSpace=wrap;html=1;fontSize=12;glass=0;strokeWidth=1;shadow=0;" vertex="1" parent="WIyWlLk6GJQsqaUBKTNV-1">
          <mxGeometry x="525" y="91.75" width="120" height="40" as="geometry" />
        </mxCell>
        <mxCell id="vzfZLmZ9EQ3UH8GfhQlj-7" style="edgeStyle=orthogonalEdgeStyle;rounded=0;orthogonalLoop=1;jettySize=auto;html=1;exitX=0.5;exitY=0;exitDx=0;exitDy=0;entryX=0.5;entryY=0;entryDx=0;entryDy=0;" edge="1" parent="WIyWlLk6GJQsqaUBKTNV-1" source="vzfZLmZ9EQ3UH8GfhQlj-5" target="vzfZLmZ9EQ3UH8GfhQlj-0">
          <mxGeometry relative="1" as="geometry" />
        </mxCell>
        <mxCell id="vzfZLmZ9EQ3UH8GfhQlj-8" value="yes" style="edgeLabel;html=1;align=center;verticalAlign=middle;resizable=0;points=[];" vertex="1" connectable="0" parent="vzfZLmZ9EQ3UH8GfhQlj-7">
          <mxGeometry x="-0.8012" y="-3" relative="1" as="geometry">
            <mxPoint as="offset" />
          </mxGeometry>
        </mxCell>
        <mxCell id="vzfZLmZ9EQ3UH8GfhQlj-10" style="edgeStyle=orthogonalEdgeStyle;rounded=0;orthogonalLoop=1;jettySize=auto;html=1;exitX=0.5;exitY=1;exitDx=0;exitDy=0;" edge="1" parent="WIyWlLk6GJQsqaUBKTNV-1" source="vzfZLmZ9EQ3UH8GfhQlj-5" target="vzfZLmZ9EQ3UH8GfhQlj-9">
          <mxGeometry relative="1" as="geometry" />
        </mxCell>
        <mxCell id="vzfZLmZ9EQ3UH8GfhQlj-15" value="no" style="edgeLabel;html=1;align=center;verticalAlign=middle;resizable=0;points=[];" vertex="1" connectable="0" parent="vzfZLmZ9EQ3UH8GfhQlj-10">
          <mxGeometry x="-0.2973" y="1" relative="1" as="geometry">
            <mxPoint y="1" as="offset" />
          </mxGeometry>
        </mxCell>
        <mxCell id="vzfZLmZ9EQ3UH8GfhQlj-5" value="&lt;div&gt;specStatus!=submitted&lt;/div&gt;&lt;div&gt;&amp;amp;&amp;amp;&lt;/div&gt;&lt;div&gt;specStatus!=in-use&lt;/div&gt;" style="rhombus;whiteSpace=wrap;html=1;" vertex="1" parent="WIyWlLk6GJQsqaUBKTNV-1">
          <mxGeometry x="705" y="63" width="180" height="97.5" as="geometry" />
        </mxCell>
        <mxCell id="vzfZLmZ9EQ3UH8GfhQlj-12" style="edgeStyle=orthogonalEdgeStyle;rounded=0;orthogonalLoop=1;jettySize=auto;html=1;exitX=0;exitY=0.5;exitDx=0;exitDy=0;entryX=1;entryY=0.5;entryDx=0;entryDy=0;" edge="1" parent="WIyWlLk6GJQsqaUBKTNV-1" source="vzfZLmZ9EQ3UH8GfhQlj-9" target="vzfZLmZ9EQ3UH8GfhQlj-11">
          <mxGeometry relative="1" as="geometry" />
        </mxCell>
        <mxCell id="vzfZLmZ9EQ3UH8GfhQlj-9" value="specAppl过滤出没有被删除的dbitem" style="rounded=1;whiteSpace=wrap;html=1;" vertex="1" parent="WIyWlLk6GJQsqaUBKTNV-1">
          <mxGeometry x="735" y="213" width="120" height="60" as="geometry" />
        </mxCell>
        <mxCell id="vzfZLmZ9EQ3UH8GfhQlj-14" style="edgeStyle=orthogonalEdgeStyle;rounded=0;orthogonalLoop=1;jettySize=auto;html=1;exitX=0;exitY=0.5;exitDx=0;exitDy=0;entryX=1;entryY=0.5;entryDx=0;entryDy=0;" edge="1" parent="WIyWlLk6GJQsqaUBKTNV-1" source="vzfZLmZ9EQ3UH8GfhQlj-11" target="vzfZLmZ9EQ3UH8GfhQlj-13">
          <mxGeometry relative="1" as="geometry" />
        </mxCell>
        <mxCell id="vzfZLmZ9EQ3UH8GfhQlj-11" value="查询itemExcelFile" style="rounded=1;whiteSpace=wrap;html=1;fontSize=12;glass=0;strokeWidth=1;shadow=0;" vertex="1" parent="WIyWlLk6GJQsqaUBKTNV-1">
          <mxGeometry x="555" y="213" width="120" height="60" as="geometry" />
        </mxCell>
        <mxCell id="vzfZLmZ9EQ3UH8GfhQlj-48" style="edgeStyle=orthogonalEdgeStyle;rounded=0;orthogonalLoop=1;jettySize=auto;html=1;exitX=0.5;exitY=1;exitDx=0;exitDy=0;entryX=0.5;entryY=0;entryDx=0;entryDy=0;" edge="1" parent="WIyWlLk6GJQsqaUBKTNV-1" source="vzfZLmZ9EQ3UH8GfhQlj-13" target="vzfZLmZ9EQ3UH8GfhQlj-17">
          <mxGeometry relative="1" as="geometry" />
        </mxCell>
        <mxCell id="vzfZLmZ9EQ3UH8GfhQlj-13" value="解析excel 文件成dtoItems对象集合" style="rounded=1;whiteSpace=wrap;html=1;fontSize=12;glass=0;strokeWidth=1;shadow=0;" vertex="1" parent="WIyWlLk6GJQsqaUBKTNV-1">
          <mxGeometry x="385" y="213" width="120" height="60" as="geometry" />
        </mxCell>
        <mxCell id="vzfZLmZ9EQ3UH8GfhQlj-16" style="edgeStyle=orthogonalEdgeStyle;rounded=0;orthogonalLoop=1;jettySize=auto;html=1;exitX=0;exitY=0.5;exitDx=0;exitDy=0;entryX=1;entryY=0.5;entryDx=0;entryDy=0;" edge="1" parent="WIyWlLk6GJQsqaUBKTNV-1" source="vzfZLmZ9EQ3UH8GfhQlj-17" target="vzfZLmZ9EQ3UH8GfhQlj-46">
          <mxGeometry relative="1" as="geometry">
            <mxPoint x="784" y="369.25" as="targetPoint" />
          </mxGeometry>
        </mxCell>
        <mxCell id="vzfZLmZ9EQ3UH8GfhQlj-17" value="遍历dbItem集合" style="rounded=1;whiteSpace=wrap;html=1;" vertex="1" parent="WIyWlLk6GJQsqaUBKTNV-1">
          <mxGeometry x="835" y="339.25" width="120" height="60" as="geometry" />
        </mxCell>
        <mxCell id="vzfZLmZ9EQ3UH8GfhQlj-18" value="" style="edgeStyle=orthogonalEdgeStyle;rounded=0;orthogonalLoop=1;jettySize=auto;html=1;exitX=0;exitY=0.5;exitDx=0;exitDy=0;" edge="1" parent="WIyWlLk6GJQsqaUBKTNV-1" target="vzfZLmZ9EQ3UH8GfhQlj-23" source="vzfZLmZ9EQ3UH8GfhQlj-46">
          <mxGeometry relative="1" as="geometry">
            <mxPoint x="635.1324444444444" y="369.35" as="sourcePoint" />
          </mxGeometry>
        </mxCell>
        <mxCell id="vzfZLmZ9EQ3UH8GfhQlj-19" value="yse" style="edgeLabel;html=1;align=center;verticalAlign=middle;resizable=0;points=[];" vertex="1" connectable="0" parent="vzfZLmZ9EQ3UH8GfhQlj-18">
          <mxGeometry x="-0.6972" y="1" relative="1" as="geometry">
            <mxPoint x="-6" y="-1" as="offset" />
          </mxGeometry>
        </mxCell>
        <mxCell id="vzfZLmZ9EQ3UH8GfhQlj-20" value="" style="edgeStyle=orthogonalEdgeStyle;rounded=0;orthogonalLoop=1;jettySize=auto;html=1;" edge="1" parent="WIyWlLk6GJQsqaUBKTNV-1" source="vzfZLmZ9EQ3UH8GfhQlj-23" target="vzfZLmZ9EQ3UH8GfhQlj-24">
          <mxGeometry relative="1" as="geometry" />
        </mxCell>
        <mxCell id="vzfZLmZ9EQ3UH8GfhQlj-21" value="yes" style="edgeLabel;html=1;align=center;verticalAlign=middle;resizable=0;points=[];" vertex="1" connectable="0" parent="vzfZLmZ9EQ3UH8GfhQlj-20">
          <mxGeometry x="-0.68" relative="1" as="geometry">
            <mxPoint x="-7" as="offset" />
          </mxGeometry>
        </mxCell>
        <mxCell id="vzfZLmZ9EQ3UH8GfhQlj-22" style="edgeStyle=orthogonalEdgeStyle;rounded=0;orthogonalLoop=1;jettySize=auto;html=1;exitX=0.5;exitY=1;exitDx=0;exitDy=0;entryX=0.5;entryY=0;entryDx=0;entryDy=0;" edge="1" parent="WIyWlLk6GJQsqaUBKTNV-1" source="vzfZLmZ9EQ3UH8GfhQlj-23" target="vzfZLmZ9EQ3UH8GfhQlj-29">
          <mxGeometry relative="1" as="geometry" />
        </mxCell>
        <mxCell id="vzfZLmZ9EQ3UH8GfhQlj-23" value="&lt;div&gt;sameRecordCount&lt;/div&gt;&amp;lt;=0" style="rhombus;whiteSpace=wrap;html=1;" vertex="1" parent="WIyWlLk6GJQsqaUBKTNV-1">
          <mxGeometry x="435" y="324.25" width="150" height="90" as="geometry" />
        </mxCell>
        <mxCell id="vzfZLmZ9EQ3UH8GfhQlj-24" value="errorMessage添加错误日志" style="rounded=1;whiteSpace=wrap;html=1;" vertex="1" parent="WIyWlLk6GJQsqaUBKTNV-1">
          <mxGeometry x="275" y="339.25" width="120" height="60" as="geometry" />
        </mxCell>
        <mxCell id="vzfZLmZ9EQ3UH8GfhQlj-25" style="edgeStyle=orthogonalEdgeStyle;rounded=0;orthogonalLoop=1;jettySize=auto;html=1;exitX=0;exitY=0.5;exitDx=0;exitDy=0;" edge="1" parent="WIyWlLk6GJQsqaUBKTNV-1" source="vzfZLmZ9EQ3UH8GfhQlj-29" target="vzfZLmZ9EQ3UH8GfhQlj-24">
          <mxGeometry relative="1" as="geometry">
            <Array as="points">
              <mxPoint x="325" y="504.25" />
            </Array>
          </mxGeometry>
        </mxCell>
        <mxCell id="vzfZLmZ9EQ3UH8GfhQlj-26" value="yes" style="edgeLabel;html=1;align=center;verticalAlign=middle;resizable=0;points=[];" vertex="1" connectable="0" parent="vzfZLmZ9EQ3UH8GfhQlj-25">
          <mxGeometry x="-0.5529" relative="1" as="geometry">
            <mxPoint y="-23" as="offset" />
          </mxGeometry>
        </mxCell>
        <mxCell id="vzfZLmZ9EQ3UH8GfhQlj-27" value="" style="edgeStyle=orthogonalEdgeStyle;rounded=0;orthogonalLoop=1;jettySize=auto;html=1;entryX=0;entryY=0.5;entryDx=0;entryDy=0;" edge="1" parent="WIyWlLk6GJQsqaUBKTNV-1" source="vzfZLmZ9EQ3UH8GfhQlj-29" target="vzfZLmZ9EQ3UH8GfhQlj-34">
          <mxGeometry relative="1" as="geometry">
            <mxPoint x="605" y="540.5" as="targetPoint" />
          </mxGeometry>
        </mxCell>
        <mxCell id="vzfZLmZ9EQ3UH8GfhQlj-28" value="no" style="edgeLabel;html=1;align=center;verticalAlign=middle;resizable=0;points=[];" vertex="1" connectable="0" parent="vzfZLmZ9EQ3UH8GfhQlj-27">
          <mxGeometry x="-0.2333" y="1" relative="1" as="geometry">
            <mxPoint as="offset" />
          </mxGeometry>
        </mxCell>
        <mxCell id="vzfZLmZ9EQ3UH8GfhQlj-29" value="&lt;div&gt;sameRecordCount&lt;/div&gt;&amp;gt;1" style="rhombus;whiteSpace=wrap;html=1;" vertex="1" parent="WIyWlLk6GJQsqaUBKTNV-1">
          <mxGeometry x="330" y="459.25" width="150" height="90" as="geometry" />
        </mxCell>
        <mxCell id="vzfZLmZ9EQ3UH8GfhQlj-30" value="" style="edgeStyle=orthogonalEdgeStyle;rounded=0;orthogonalLoop=1;jettySize=auto;html=1;" edge="1" parent="WIyWlLk6GJQsqaUBKTNV-1" source="vzfZLmZ9EQ3UH8GfhQlj-34" target="vzfZLmZ9EQ3UH8GfhQlj-36">
          <mxGeometry relative="1" as="geometry" />
        </mxCell>
        <mxCell id="vzfZLmZ9EQ3UH8GfhQlj-31" value="yes" style="edgeLabel;html=1;align=center;verticalAlign=middle;resizable=0;points=[];" vertex="1" connectable="0" parent="vzfZLmZ9EQ3UH8GfhQlj-30">
          <mxGeometry x="-0.2718" relative="1" as="geometry">
            <mxPoint y="1" as="offset" />
          </mxGeometry>
        </mxCell>
        <mxCell id="vzfZLmZ9EQ3UH8GfhQlj-32" value="" style="edgeStyle=orthogonalEdgeStyle;rounded=0;orthogonalLoop=1;jettySize=auto;html=1;" edge="1" parent="WIyWlLk6GJQsqaUBKTNV-1" source="vzfZLmZ9EQ3UH8GfhQlj-34" target="vzfZLmZ9EQ3UH8GfhQlj-38">
          <mxGeometry relative="1" as="geometry" />
        </mxCell>
        <mxCell id="vzfZLmZ9EQ3UH8GfhQlj-33" value="no" style="edgeLabel;html=1;align=center;verticalAlign=middle;resizable=0;points=[];" vertex="1" connectable="0" parent="vzfZLmZ9EQ3UH8GfhQlj-32">
          <mxGeometry x="-0.2182" y="-2" relative="1" as="geometry">
            <mxPoint as="offset" />
          </mxGeometry>
        </mxCell>
        <mxCell id="vzfZLmZ9EQ3UH8GfhQlj-34" value="&lt;div&gt;dtotiem是否被&lt;/div&gt;&lt;div&gt;permitItem使用了&lt;/div&gt;" style="rhombus;whiteSpace=wrap;html=1;" vertex="1" parent="WIyWlLk6GJQsqaUBKTNV-1">
          <mxGeometry x="545" y="458.25" width="140" height="95" as="geometry" />
        </mxCell>
        <mxCell id="vzfZLmZ9EQ3UH8GfhQlj-35" value="" style="edgeStyle=orthogonalEdgeStyle;rounded=0;orthogonalLoop=1;jettySize=auto;html=1;" edge="1" parent="WIyWlLk6GJQsqaUBKTNV-1" source="vzfZLmZ9EQ3UH8GfhQlj-36" target="vzfZLmZ9EQ3UH8GfhQlj-43">
          <mxGeometry relative="1" as="geometry" />
        </mxCell>
        <mxCell id="vzfZLmZ9EQ3UH8GfhQlj-36" value="dtoItem添加到skip2Edit集合" style="rounded=1;whiteSpace=wrap;html=1;" vertex="1" parent="WIyWlLk6GJQsqaUBKTNV-1">
          <mxGeometry x="519" y="609.25" width="120" height="60" as="geometry" />
        </mxCell>
        <mxCell id="vzfZLmZ9EQ3UH8GfhQlj-37" style="edgeStyle=orthogonalEdgeStyle;rounded=0;orthogonalLoop=1;jettySize=auto;html=1;exitX=0.5;exitY=1;exitDx=0;exitDy=0;entryX=0.5;entryY=0;entryDx=0;entryDy=0;" edge="1" parent="WIyWlLk6GJQsqaUBKTNV-1" source="vzfZLmZ9EQ3UH8GfhQlj-38" target="vzfZLmZ9EQ3UH8GfhQlj-43">
          <mxGeometry relative="1" as="geometry">
            <Array as="points">
              <mxPoint x="755" y="639.25" />
              <mxPoint x="725" y="639.25" />
            </Array>
          </mxGeometry>
        </mxCell>
        <mxCell id="vzfZLmZ9EQ3UH8GfhQlj-38" value="dtoItem添加到wait2Edit集合" style="rounded=1;whiteSpace=wrap;html=1;" vertex="1" parent="WIyWlLk6GJQsqaUBKTNV-1">
          <mxGeometry x="745" y="476.75" width="120" height="60" as="geometry" />
        </mxCell>
        <mxCell id="vzfZLmZ9EQ3UH8GfhQlj-39" style="edgeStyle=orthogonalEdgeStyle;rounded=0;orthogonalLoop=1;jettySize=auto;html=1;exitX=1;exitY=0.5;exitDx=0;exitDy=0;entryX=0.5;entryY=1;entryDx=0;entryDy=0;" edge="1" parent="WIyWlLk6GJQsqaUBKTNV-1" source="vzfZLmZ9EQ3UH8GfhQlj-43" target="vzfZLmZ9EQ3UH8GfhQlj-17">
          <mxGeometry relative="1" as="geometry">
            <Array as="points">
              <mxPoint x="895" y="734" />
            </Array>
          </mxGeometry>
        </mxCell>
        <mxCell id="vzfZLmZ9EQ3UH8GfhQlj-40" value="no" style="edgeLabel;html=1;align=center;verticalAlign=middle;resizable=0;points=[];" vertex="1" connectable="0" parent="vzfZLmZ9EQ3UH8GfhQlj-39">
          <mxGeometry x="-0.8203" y="-1" relative="1" as="geometry">
            <mxPoint as="offset" />
          </mxGeometry>
        </mxCell>
        <mxCell id="vzfZLmZ9EQ3UH8GfhQlj-41" value="" style="edgeStyle=orthogonalEdgeStyle;rounded=0;orthogonalLoop=1;jettySize=auto;html=1;entryX=1;entryY=0.5;entryDx=0;entryDy=0;" edge="1" parent="WIyWlLk6GJQsqaUBKTNV-1" source="vzfZLmZ9EQ3UH8GfhQlj-43" target="vzfZLmZ9EQ3UH8GfhQlj-45">
          <mxGeometry relative="1" as="geometry">
            <mxPoint x="545" y="734.25" as="targetPoint" />
            <Array as="points">
              <mxPoint x="475" y="734" />
              <mxPoint x="475" y="621" />
            </Array>
          </mxGeometry>
        </mxCell>
        <mxCell id="vzfZLmZ9EQ3UH8GfhQlj-42" value="yes" style="edgeLabel;html=1;align=center;verticalAlign=middle;resizable=0;points=[];" vertex="1" connectable="0" parent="vzfZLmZ9EQ3UH8GfhQlj-41">
          <mxGeometry x="-0.7444" relative="1" as="geometry">
            <mxPoint x="-13" as="offset" />
          </mxGeometry>
        </mxCell>
        <mxCell id="vzfZLmZ9EQ3UH8GfhQlj-43" value="&lt;div&gt;检查是否&lt;/div&gt;&lt;div&gt;最后一条记录&lt;br&gt;&lt;/div&gt;" style="rhombus;whiteSpace=wrap;html=1;" vertex="1" parent="WIyWlLk6GJQsqaUBKTNV-1">
          <mxGeometry x="653" y="689.25" width="100" height="90" as="geometry" />
        </mxCell>
        <mxCell id="vzfZLmZ9EQ3UH8GfhQlj-49" style="edgeStyle=orthogonalEdgeStyle;rounded=0;orthogonalLoop=1;jettySize=auto;html=1;exitX=0;exitY=0.5;exitDx=0;exitDy=0;entryX=0.5;entryY=1;entryDx=0;entryDy=0;" edge="1" parent="WIyWlLk6GJQsqaUBKTNV-1" source="vzfZLmZ9EQ3UH8GfhQlj-45" target="vzfZLmZ9EQ3UH8GfhQlj-0">
          <mxGeometry relative="1" as="geometry" />
        </mxCell>
        <mxCell id="vzfZLmZ9EQ3UH8GfhQlj-50" value="yes" style="edgeLabel;html=1;align=center;verticalAlign=middle;resizable=0;points=[];" vertex="1" connectable="0" parent="vzfZLmZ9EQ3UH8GfhQlj-49">
          <mxGeometry x="-0.8726" y="1" relative="1" as="geometry">
            <mxPoint as="offset" />
          </mxGeometry>
        </mxCell>
        <mxCell id="vzfZLmZ9EQ3UH8GfhQlj-52" style="edgeStyle=orthogonalEdgeStyle;rounded=0;orthogonalLoop=1;jettySize=auto;html=1;exitX=0.5;exitY=1;exitDx=0;exitDy=0;entryX=0.5;entryY=0;entryDx=0;entryDy=0;" edge="1" parent="WIyWlLk6GJQsqaUBKTNV-1" source="vzfZLmZ9EQ3UH8GfhQlj-45" target="vzfZLmZ9EQ3UH8GfhQlj-51">
          <mxGeometry relative="1" as="geometry" />
        </mxCell>
        <mxCell id="vzfZLmZ9EQ3UH8GfhQlj-54" value="no" style="edgeLabel;html=1;align=center;verticalAlign=middle;resizable=0;points=[];" vertex="1" connectable="0" parent="vzfZLmZ9EQ3UH8GfhQlj-52">
          <mxGeometry x="-0.6825" y="2" relative="1" as="geometry">
            <mxPoint as="offset" />
          </mxGeometry>
        </mxCell>
        <mxCell id="vzfZLmZ9EQ3UH8GfhQlj-45" value="&lt;div&gt;errorMessage&lt;/div&gt;&amp;gt;0" style="rhombus;whiteSpace=wrap;html=1;" vertex="1" parent="WIyWlLk6GJQsqaUBKTNV-1">
          <mxGeometry x="340" y="573" width="95" height="95" as="geometry" />
        </mxCell>
        <mxCell id="vzfZLmZ9EQ3UH8GfhQlj-46" value="&lt;div&gt;seq&amp;amp;itemCode&lt;/div&gt;&lt;div&gt;是否能在dtoitem里&lt;/div&gt;&lt;div&gt;sameRecordCount&lt;/div&gt;" style="rhombus;whiteSpace=wrap;html=1;" vertex="1" parent="WIyWlLk6GJQsqaUBKTNV-1">
          <mxGeometry x="645" y="313" width="149" height="112.5" as="geometry" />
        </mxCell>
        <mxCell id="vzfZLmZ9EQ3UH8GfhQlj-53" style="edgeStyle=orthogonalEdgeStyle;rounded=0;orthogonalLoop=1;jettySize=auto;html=1;exitX=0;exitY=0.5;exitDx=0;exitDy=0;entryX=0.5;entryY=1;entryDx=0;entryDy=0;" edge="1" parent="WIyWlLk6GJQsqaUBKTNV-1" source="vzfZLmZ9EQ3UH8GfhQlj-51" target="vzfZLmZ9EQ3UH8GfhQlj-0">
          <mxGeometry relative="1" as="geometry" />
        </mxCell>
        <mxCell id="vzfZLmZ9EQ3UH8GfhQlj-55" value="yes" style="edgeLabel;html=1;align=center;verticalAlign=middle;resizable=0;points=[];" vertex="1" connectable="0" parent="vzfZLmZ9EQ3UH8GfhQlj-53">
          <mxGeometry x="-0.9027" y="-3" relative="1" as="geometry">
            <mxPoint x="1" as="offset" />
          </mxGeometry>
        </mxCell>
        <mxCell id="vzfZLmZ9EQ3UH8GfhQlj-108" style="edgeStyle=orthogonalEdgeStyle;rounded=0;orthogonalLoop=1;jettySize=auto;html=1;exitX=1;exitY=0.5;exitDx=0;exitDy=0;entryX=0;entryY=0.5;entryDx=0;entryDy=0;" edge="1" parent="WIyWlLk6GJQsqaUBKTNV-1" source="vzfZLmZ9EQ3UH8GfhQlj-51" target="vzfZLmZ9EQ3UH8GfhQlj-60">
          <mxGeometry relative="1" as="geometry" />
        </mxCell>
        <mxCell id="vzfZLmZ9EQ3UH8GfhQlj-109" value="no" style="edgeLabel;html=1;align=center;verticalAlign=middle;resizable=0;points=[];" vertex="1" connectable="0" parent="vzfZLmZ9EQ3UH8GfhQlj-108">
          <mxGeometry x="-0.2206" y="3" relative="1" as="geometry">
            <mxPoint as="offset" />
          </mxGeometry>
        </mxCell>
        <mxCell id="vzfZLmZ9EQ3UH8GfhQlj-51" value="wait2Edit&amp;lt;=0" style="rhombus;whiteSpace=wrap;html=1;" vertex="1" parent="WIyWlLk6GJQsqaUBKTNV-1">
          <mxGeometry x="347.5" y="713" width="80" height="80" as="geometry" />
        </mxCell>
        <mxCell id="vzfZLmZ9EQ3UH8GfhQlj-59" style="edgeStyle=orthogonalEdgeStyle;rounded=0;orthogonalLoop=1;jettySize=auto;html=1;exitX=1;exitY=0.5;exitDx=0;exitDy=0;entryX=0;entryY=0.5;entryDx=0;entryDy=0;" edge="1" parent="WIyWlLk6GJQsqaUBKTNV-1" source="vzfZLmZ9EQ3UH8GfhQlj-60" target="vzfZLmZ9EQ3UH8GfhQlj-67">
          <mxGeometry relative="1" as="geometry">
            <mxPoint x="715" y="850" as="targetPoint" />
          </mxGeometry>
        </mxCell>
        <mxCell id="vzfZLmZ9EQ3UH8GfhQlj-60" value="遍历循环wait2Edit" style="rounded=1;whiteSpace=wrap;html=1;" vertex="1" parent="WIyWlLk6GJQsqaUBKTNV-1">
          <mxGeometry x="525" y="820" width="120" height="60" as="geometry" />
        </mxCell>
        <mxCell id="vzfZLmZ9EQ3UH8GfhQlj-61" value="" style="edgeStyle=orthogonalEdgeStyle;rounded=0;orthogonalLoop=1;jettySize=auto;html=1;exitX=1;exitY=0.5;exitDx=0;exitDy=0;" edge="1" parent="WIyWlLk6GJQsqaUBKTNV-1" source="vzfZLmZ9EQ3UH8GfhQlj-67" target="vzfZLmZ9EQ3UH8GfhQlj-64">
          <mxGeometry relative="1" as="geometry">
            <mxPoint x="775" y="880" as="sourcePoint" />
          </mxGeometry>
        </mxCell>
        <mxCell id="vzfZLmZ9EQ3UH8GfhQlj-62" value="非空" style="edgeLabel;html=1;align=center;verticalAlign=middle;resizable=0;points=[];" vertex="1" connectable="0" parent="vzfZLmZ9EQ3UH8GfhQlj-61">
          <mxGeometry x="-0.2769" relative="1" as="geometry">
            <mxPoint as="offset" />
          </mxGeometry>
        </mxCell>
        <mxCell id="vzfZLmZ9EQ3UH8GfhQlj-63" value="" style="edgeStyle=orthogonalEdgeStyle;rounded=0;orthogonalLoop=1;jettySize=auto;html=1;entryX=1;entryY=0.5;entryDx=0;entryDy=0;" edge="1" parent="WIyWlLk6GJQsqaUBKTNV-1" source="vzfZLmZ9EQ3UH8GfhQlj-64" target="vzfZLmZ9EQ3UH8GfhQlj-74">
          <mxGeometry relative="1" as="geometry">
            <mxPoint x="645" y="1010" as="targetPoint" />
          </mxGeometry>
        </mxCell>
        <mxCell id="vzfZLmZ9EQ3UH8GfhQlj-64" value="dtoItem的itemCode查询itemMaster" style="rounded=1;whiteSpace=wrap;html=1;" vertex="1" parent="WIyWlLk6GJQsqaUBKTNV-1">
          <mxGeometry x="775" y="980" width="120" height="60" as="geometry" />
        </mxCell>
        <mxCell id="vzfZLmZ9EQ3UH8GfhQlj-65" style="edgeStyle=orthogonalEdgeStyle;rounded=0;orthogonalLoop=1;jettySize=auto;html=1;exitX=0.5;exitY=1;exitDx=0;exitDy=0;entryX=1;entryY=0.5;entryDx=0;entryDy=0;" edge="1" parent="WIyWlLk6GJQsqaUBKTNV-1" source="vzfZLmZ9EQ3UH8GfhQlj-67" target="vzfZLmZ9EQ3UH8GfhQlj-69">
          <mxGeometry relative="1" as="geometry" />
        </mxCell>
        <mxCell id="vzfZLmZ9EQ3UH8GfhQlj-66" value="空" style="edgeLabel;html=1;align=center;verticalAlign=middle;resizable=0;points=[];" vertex="1" connectable="0" parent="vzfZLmZ9EQ3UH8GfhQlj-65">
          <mxGeometry x="-0.1" relative="1" as="geometry">
            <mxPoint as="offset" />
          </mxGeometry>
        </mxCell>
        <mxCell id="vzfZLmZ9EQ3UH8GfhQlj-67" value="&lt;div&gt;dtoItem字段&lt;/div&gt;&lt;div&gt;非空验证&lt;br&gt;&lt;/div&gt;" style="rhombus;whiteSpace=wrap;html=1;" vertex="1" parent="WIyWlLk6GJQsqaUBKTNV-1">
          <mxGeometry x="735" y="810" width="80" height="80" as="geometry" />
        </mxCell>
        <mxCell id="vzfZLmZ9EQ3UH8GfhQlj-68" style="edgeStyle=orthogonalEdgeStyle;rounded=0;orthogonalLoop=1;jettySize=auto;html=1;exitX=0.5;exitY=0;exitDx=0;exitDy=0;entryX=0.5;entryY=1;entryDx=0;entryDy=0;" edge="1" parent="WIyWlLk6GJQsqaUBKTNV-1" source="vzfZLmZ9EQ3UH8GfhQlj-69" target="vzfZLmZ9EQ3UH8GfhQlj-60">
          <mxGeometry relative="1" as="geometry">
            <Array as="points">
              <mxPoint x="700" y="890" />
              <mxPoint x="585" y="890" />
            </Array>
          </mxGeometry>
        </mxCell>
        <mxCell id="vzfZLmZ9EQ3UH8GfhQlj-69" value="errorMessage添加错误日志" style="rounded=1;whiteSpace=wrap;html=1;" vertex="1" parent="WIyWlLk6GJQsqaUBKTNV-1">
          <mxGeometry x="655" y="900" width="90" height="40" as="geometry" />
        </mxCell>
        <mxCell id="vzfZLmZ9EQ3UH8GfhQlj-70" style="edgeStyle=orthogonalEdgeStyle;rounded=0;orthogonalLoop=1;jettySize=auto;html=1;exitX=0.5;exitY=0;exitDx=0;exitDy=0;entryX=0;entryY=0.5;entryDx=0;entryDy=0;" edge="1" parent="WIyWlLk6GJQsqaUBKTNV-1" source="vzfZLmZ9EQ3UH8GfhQlj-74" target="vzfZLmZ9EQ3UH8GfhQlj-69">
          <mxGeometry relative="1" as="geometry" />
        </mxCell>
        <mxCell id="vzfZLmZ9EQ3UH8GfhQlj-71" value="不存在" style="edgeLabel;html=1;align=center;verticalAlign=middle;resizable=0;points=[];" vertex="1" connectable="0" parent="vzfZLmZ9EQ3UH8GfhQlj-70">
          <mxGeometry x="0.0444" y="-2" relative="1" as="geometry">
            <mxPoint x="-7" y="18" as="offset" />
          </mxGeometry>
        </mxCell>
        <mxCell id="vzfZLmZ9EQ3UH8GfhQlj-72" value="" style="edgeStyle=orthogonalEdgeStyle;rounded=0;orthogonalLoop=1;jettySize=auto;html=1;" edge="1" parent="WIyWlLk6GJQsqaUBKTNV-1" source="vzfZLmZ9EQ3UH8GfhQlj-74" target="vzfZLmZ9EQ3UH8GfhQlj-79">
          <mxGeometry relative="1" as="geometry" />
        </mxCell>
        <mxCell id="vzfZLmZ9EQ3UH8GfhQlj-73" value="存在" style="edgeLabel;html=1;align=center;verticalAlign=middle;resizable=0;points=[];" vertex="1" connectable="0" parent="vzfZLmZ9EQ3UH8GfhQlj-72">
          <mxGeometry x="-0.225" y="3" relative="1" as="geometry">
            <mxPoint as="offset" />
          </mxGeometry>
        </mxCell>
        <mxCell id="vzfZLmZ9EQ3UH8GfhQlj-74" value="校验itemMaster是否存在" style="rhombus;whiteSpace=wrap;html=1;" vertex="1" parent="WIyWlLk6GJQsqaUBKTNV-1">
          <mxGeometry x="555" y="970" width="80" height="80" as="geometry" />
        </mxCell>
        <mxCell id="vzfZLmZ9EQ3UH8GfhQlj-75" style="edgeStyle=orthogonalEdgeStyle;rounded=0;orthogonalLoop=1;jettySize=auto;html=1;exitX=0.5;exitY=0;exitDx=0;exitDy=0;entryX=0;entryY=0.5;entryDx=0;entryDy=0;" edge="1" parent="WIyWlLk6GJQsqaUBKTNV-1" source="vzfZLmZ9EQ3UH8GfhQlj-79" target="vzfZLmZ9EQ3UH8GfhQlj-69">
          <mxGeometry relative="1" as="geometry">
            <Array as="points">
              <mxPoint x="435" y="920" />
            </Array>
          </mxGeometry>
        </mxCell>
        <mxCell id="vzfZLmZ9EQ3UH8GfhQlj-76" value="不正确" style="edgeLabel;html=1;align=center;verticalAlign=middle;resizable=0;points=[];" vertex="1" connectable="0" parent="vzfZLmZ9EQ3UH8GfhQlj-75">
          <mxGeometry x="-0.7111" y="1" relative="1" as="geometry">
            <mxPoint x="1" y="9" as="offset" />
          </mxGeometry>
        </mxCell>
        <mxCell id="vzfZLmZ9EQ3UH8GfhQlj-77" value="" style="edgeStyle=orthogonalEdgeStyle;rounded=0;orthogonalLoop=1;jettySize=auto;html=1;" edge="1" parent="WIyWlLk6GJQsqaUBKTNV-1" source="vzfZLmZ9EQ3UH8GfhQlj-79" target="vzfZLmZ9EQ3UH8GfhQlj-83">
          <mxGeometry relative="1" as="geometry" />
        </mxCell>
        <mxCell id="vzfZLmZ9EQ3UH8GfhQlj-78" value="正确" style="edgeLabel;html=1;align=center;verticalAlign=middle;resizable=0;points=[];" vertex="1" connectable="0" parent="vzfZLmZ9EQ3UH8GfhQlj-77">
          <mxGeometry x="-0.225" y="3" relative="1" as="geometry">
            <mxPoint as="offset" />
          </mxGeometry>
        </mxCell>
        <mxCell id="vzfZLmZ9EQ3UH8GfhQlj-79" value="校验coo信息是否正确" style="rhombus;whiteSpace=wrap;html=1;" vertex="1" parent="WIyWlLk6GJQsqaUBKTNV-1">
          <mxGeometry x="395" y="970" width="80" height="80" as="geometry" />
        </mxCell>
        <mxCell id="vzfZLmZ9EQ3UH8GfhQlj-80" style="edgeStyle=orthogonalEdgeStyle;rounded=0;orthogonalLoop=1;jettySize=auto;html=1;exitX=0.5;exitY=0;exitDx=0;exitDy=0;entryX=0;entryY=0.5;entryDx=0;entryDy=0;" edge="1" parent="WIyWlLk6GJQsqaUBKTNV-1" source="vzfZLmZ9EQ3UH8GfhQlj-83" target="vzfZLmZ9EQ3UH8GfhQlj-69">
          <mxGeometry relative="1" as="geometry" />
        </mxCell>
        <mxCell id="vzfZLmZ9EQ3UH8GfhQlj-81" value="不正确" style="edgeLabel;html=1;align=center;verticalAlign=middle;resizable=0;points=[];" vertex="1" connectable="0" parent="vzfZLmZ9EQ3UH8GfhQlj-80">
          <mxGeometry x="-0.8098" y="2" relative="1" as="geometry">
            <mxPoint x="2" y="9" as="offset" />
          </mxGeometry>
        </mxCell>
        <mxCell id="vzfZLmZ9EQ3UH8GfhQlj-82" value="" style="edgeStyle=orthogonalEdgeStyle;rounded=0;orthogonalLoop=1;jettySize=auto;html=1;entryX=0.5;entryY=0;entryDx=0;entryDy=0;" edge="1" parent="WIyWlLk6GJQsqaUBKTNV-1" source="vzfZLmZ9EQ3UH8GfhQlj-83" target="vzfZLmZ9EQ3UH8GfhQlj-104">
          <mxGeometry relative="1" as="geometry">
            <mxPoint x="295" y="1117" as="targetPoint" />
          </mxGeometry>
        </mxCell>
        <mxCell id="vzfZLmZ9EQ3UH8GfhQlj-107" value="正确" style="edgeLabel;html=1;align=center;verticalAlign=middle;resizable=0;points=[];" vertex="1" connectable="0" parent="vzfZLmZ9EQ3UH8GfhQlj-82">
          <mxGeometry x="-0.4701" y="-1" relative="1" as="geometry">
            <mxPoint as="offset" />
          </mxGeometry>
        </mxCell>
        <mxCell id="vzfZLmZ9EQ3UH8GfhQlj-83" value="&lt;div&gt;校验uom&lt;/div&gt;&lt;div&gt;是否正确&lt;br&gt;&lt;/div&gt;" style="rhombus;whiteSpace=wrap;html=1;" vertex="1" parent="WIyWlLk6GJQsqaUBKTNV-1">
          <mxGeometry x="255" y="970" width="80" height="80" as="geometry" />
        </mxCell>
        <mxCell id="vzfZLmZ9EQ3UH8GfhQlj-84" value="" style="edgeStyle=orthogonalEdgeStyle;rounded=0;orthogonalLoop=1;jettySize=auto;html=1;" edge="1" parent="WIyWlLk6GJQsqaUBKTNV-1" source="vzfZLmZ9EQ3UH8GfhQlj-88" target="vzfZLmZ9EQ3UH8GfhQlj-90">
          <mxGeometry relative="1" as="geometry" />
        </mxCell>
        <mxCell id="vzfZLmZ9EQ3UH8GfhQlj-85" value="yes" style="edgeLabel;html=1;align=center;verticalAlign=middle;resizable=0;points=[];" vertex="1" connectable="0" parent="vzfZLmZ9EQ3UH8GfhQlj-84">
          <mxGeometry x="-0.1915" y="-3" relative="1" as="geometry">
            <mxPoint x="1" as="offset" />
          </mxGeometry>
        </mxCell>
        <mxCell id="vzfZLmZ9EQ3UH8GfhQlj-86" value="" style="edgeStyle=orthogonalEdgeStyle;rounded=0;orthogonalLoop=1;jettySize=auto;html=1;" edge="1" parent="WIyWlLk6GJQsqaUBKTNV-1" source="vzfZLmZ9EQ3UH8GfhQlj-88" target="vzfZLmZ9EQ3UH8GfhQlj-91">
          <mxGeometry relative="1" as="geometry" />
        </mxCell>
        <mxCell id="vzfZLmZ9EQ3UH8GfhQlj-87" value="no" style="edgeLabel;html=1;align=center;verticalAlign=middle;resizable=0;points=[];" vertex="1" connectable="0" parent="vzfZLmZ9EQ3UH8GfhQlj-86">
          <mxGeometry x="-0.7098" relative="1" as="geometry">
            <mxPoint x="-9" as="offset" />
          </mxGeometry>
        </mxCell>
        <mxCell id="vzfZLmZ9EQ3UH8GfhQlj-88" value="&lt;div&gt;errorMessage&lt;/div&gt;&lt;div&gt;&amp;lt;0&lt;br&gt;&lt;/div&gt;" style="rhombus;whiteSpace=wrap;html=1;" vertex="1" parent="WIyWlLk6GJQsqaUBKTNV-1">
          <mxGeometry x="247.5" y="1215" width="95" height="90" as="geometry" />
        </mxCell>
        <mxCell id="vzfZLmZ9EQ3UH8GfhQlj-89" style="edgeStyle=orthogonalEdgeStyle;rounded=0;orthogonalLoop=1;jettySize=auto;html=1;exitX=1;exitY=0.5;exitDx=0;exitDy=0;entryX=0;entryY=0.5;entryDx=0;entryDy=0;" edge="1" parent="WIyWlLk6GJQsqaUBKTNV-1" source="vzfZLmZ9EQ3UH8GfhQlj-90" target="vzfZLmZ9EQ3UH8GfhQlj-94">
          <mxGeometry relative="1" as="geometry" />
        </mxCell>
        <mxCell id="vzfZLmZ9EQ3UH8GfhQlj-90" value="&lt;div&gt;转换SpecialApproval&lt;/div&gt;&lt;div&gt;DetailDto对象并存放新的集合里面&lt;/div&gt;" style="rounded=1;whiteSpace=wrap;html=1;" vertex="1" parent="WIyWlLk6GJQsqaUBKTNV-1">
          <mxGeometry x="435" y="1235" width="120" height="60" as="geometry" />
        </mxCell>
        <mxCell id="vzfZLmZ9EQ3UH8GfhQlj-91" value="isSussess=false" style="rounded=1;whiteSpace=wrap;html=1;" vertex="1" parent="WIyWlLk6GJQsqaUBKTNV-1">
          <mxGeometry x="245" y="1350" width="100" height="45" as="geometry" />
        </mxCell>
        <mxCell id="vzfZLmZ9EQ3UH8GfhQlj-93" value="" style="edgeStyle=orthogonalEdgeStyle;rounded=0;orthogonalLoop=1;jettySize=auto;html=1;entryX=0;entryY=0.5;entryDx=0;entryDy=0;" edge="1" parent="WIyWlLk6GJQsqaUBKTNV-1" source="vzfZLmZ9EQ3UH8GfhQlj-94" target="vzfZLmZ9EQ3UH8GfhQlj-96">
          <mxGeometry relative="1" as="geometry">
            <mxPoint x="745" y="1265" as="targetPoint" />
          </mxGeometry>
        </mxCell>
        <mxCell id="vzfZLmZ9EQ3UH8GfhQlj-101" value="true" style="edgeLabel;html=1;align=center;verticalAlign=middle;resizable=0;points=[];" vertex="1" connectable="0" parent="vzfZLmZ9EQ3UH8GfhQlj-93">
          <mxGeometry x="-0.2741" y="2" relative="1" as="geometry">
            <mxPoint as="offset" />
          </mxGeometry>
        </mxCell>
        <mxCell id="vzfZLmZ9EQ3UH8GfhQlj-98" style="edgeStyle=orthogonalEdgeStyle;rounded=0;orthogonalLoop=1;jettySize=auto;html=1;exitX=0.5;exitY=1;exitDx=0;exitDy=0;entryX=0.5;entryY=1;entryDx=0;entryDy=0;" edge="1" parent="WIyWlLk6GJQsqaUBKTNV-1" source="vzfZLmZ9EQ3UH8GfhQlj-94" target="vzfZLmZ9EQ3UH8GfhQlj-0">
          <mxGeometry relative="1" as="geometry">
            <Array as="points">
              <mxPoint x="645" y="1440" />
              <mxPoint x="185" y="1440" />
            </Array>
          </mxGeometry>
        </mxCell>
        <mxCell id="vzfZLmZ9EQ3UH8GfhQlj-99" value="false" style="edgeLabel;html=1;align=center;verticalAlign=middle;resizable=0;points=[];" vertex="1" connectable="0" parent="vzfZLmZ9EQ3UH8GfhQlj-98">
          <mxGeometry x="-0.9674" y="1" relative="1" as="geometry">
            <mxPoint as="offset" />
          </mxGeometry>
        </mxCell>
        <mxCell id="vzfZLmZ9EQ3UH8GfhQlj-94" value="isSussess" style="rhombus;whiteSpace=wrap;html=1;" vertex="1" parent="WIyWlLk6GJQsqaUBKTNV-1">
          <mxGeometry x="605" y="1225" width="80" height="80" as="geometry" />
        </mxCell>
        <mxCell id="vzfZLmZ9EQ3UH8GfhQlj-95" value="" style="edgeStyle=orthogonalEdgeStyle;rounded=0;orthogonalLoop=1;jettySize=auto;html=1;" edge="1" parent="WIyWlLk6GJQsqaUBKTNV-1" source="vzfZLmZ9EQ3UH8GfhQlj-96" target="vzfZLmZ9EQ3UH8GfhQlj-97">
          <mxGeometry relative="1" as="geometry" />
        </mxCell>
        <mxCell id="vzfZLmZ9EQ3UH8GfhQlj-96" value="修改approvalLog状态为已审核" style="rounded=1;whiteSpace=wrap;html=1;" vertex="1" parent="WIyWlLk6GJQsqaUBKTNV-1">
          <mxGeometry x="763" y="1235" width="120" height="60" as="geometry" />
        </mxCell>
        <mxCell id="vzfZLmZ9EQ3UH8GfhQlj-103" value="" style="edgeStyle=orthogonalEdgeStyle;rounded=0;orthogonalLoop=1;jettySize=auto;html=1;" edge="1" parent="WIyWlLk6GJQsqaUBKTNV-1" source="vzfZLmZ9EQ3UH8GfhQlj-97" target="vzfZLmZ9EQ3UH8GfhQlj-102">
          <mxGeometry relative="1" as="geometry" />
        </mxCell>
        <mxCell id="vzfZLmZ9EQ3UH8GfhQlj-97" value="&lt;div&gt;循环更新SpecialApprovalItem集合&lt;/div&gt;" style="rounded=1;whiteSpace=wrap;html=1;" vertex="1" parent="WIyWlLk6GJQsqaUBKTNV-1">
          <mxGeometry x="763" y="1360" width="120" height="60" as="geometry" />
        </mxCell>
        <mxCell id="vzfZLmZ9EQ3UH8GfhQlj-102" value="end" style="rounded=1;whiteSpace=wrap;html=1;" vertex="1" parent="WIyWlLk6GJQsqaUBKTNV-1">
          <mxGeometry x="763" y="1467" width="120" height="60" as="geometry" />
        </mxCell>
        <mxCell id="vzfZLmZ9EQ3UH8GfhQlj-106" style="edgeStyle=orthogonalEdgeStyle;rounded=0;orthogonalLoop=1;jettySize=auto;html=1;exitX=0.5;exitY=1;exitDx=0;exitDy=0;entryX=0.5;entryY=0;entryDx=0;entryDy=0;" edge="1" parent="WIyWlLk6GJQsqaUBKTNV-1" source="vzfZLmZ9EQ3UH8GfhQlj-104" target="vzfZLmZ9EQ3UH8GfhQlj-88">
          <mxGeometry relative="1" as="geometry" />
        </mxCell>
        <mxCell id="vzfZLmZ9EQ3UH8GfhQlj-110" value="yes" style="edgeLabel;html=1;align=center;verticalAlign=middle;resizable=0;points=[];" vertex="1" connectable="0" parent="vzfZLmZ9EQ3UH8GfhQlj-106">
          <mxGeometry x="-0.5111" y="2" relative="1" as="geometry">
            <mxPoint as="offset" />
          </mxGeometry>
        </mxCell>
        <mxCell id="vzfZLmZ9EQ3UH8GfhQlj-111" style="edgeStyle=orthogonalEdgeStyle;rounded=0;orthogonalLoop=1;jettySize=auto;html=1;exitX=1;exitY=0.5;exitDx=0;exitDy=0;entryX=0.5;entryY=0;entryDx=0;entryDy=0;" edge="1" parent="WIyWlLk6GJQsqaUBKTNV-1" source="vzfZLmZ9EQ3UH8GfhQlj-104" target="vzfZLmZ9EQ3UH8GfhQlj-60">
          <mxGeometry relative="1" as="geometry">
            <Array as="points">
              <mxPoint x="980" y="1130" />
              <mxPoint x="980" y="800" />
              <mxPoint x="585" y="800" />
            </Array>
          </mxGeometry>
        </mxCell>
        <mxCell id="vzfZLmZ9EQ3UH8GfhQlj-112" value="no" style="edgeLabel;html=1;align=center;verticalAlign=middle;resizable=0;points=[];" vertex="1" connectable="0" parent="vzfZLmZ9EQ3UH8GfhQlj-111">
          <mxGeometry x="-0.9079" y="-1" relative="1" as="geometry">
            <mxPoint as="offset" />
          </mxGeometry>
        </mxCell>
        <mxCell id="vzfZLmZ9EQ3UH8GfhQlj-104" value="&lt;div&gt;检查是否&lt;/div&gt;&lt;div&gt;最后一条记录&lt;br&gt;&lt;/div&gt;" style="rhombus;whiteSpace=wrap;html=1;" vertex="1" parent="WIyWlLk6GJQsqaUBKTNV-1">
          <mxGeometry x="255" y="1090" width="80" height="80" as="geometry" />
        </mxCell>
      </root>
    </mxGraphModel>
  </diagram>
</mxfile>
